<svg width="118" height="104" viewBox="0 0 118 104" fill="none" xmlns="http://www.w3.org/2000/svg">
  <path d="M117.4 41.5801C115.68 36.9931 109.659 34.4129 104.069 31.8326C98.0484 28.9657 89.591 27.5323 81.8503 27.3889C76.6899 23.3753 69.5226 18.7882 60.6352 16.4947C58.915 10.1875 56.6215 6.31713 52.6078 2.01676C50.7443 0.153267 49.4542 -0.276769 46.5873 0.153268C41.4269 1.01334 39.8501 2.4468 36.6965 4.45364C28.3824 9.0407 15.1946 20.6517 6.45055 36.8497C2.72357 44.3037 0 52.0444 0 60.3584C0 81.1435 17.6315 102.645 52.3211 103.075C70.6694 103.075 81.5636 95.7648 89.0176 84.0104C97.905 77.7032 109.373 66.6656 116.11 53.4778C118.26 48.8908 118.403 43.8737 117.4 41.5801Z" fill="#1A1B1D"/>
  <path d="M22.7919 35.2729C14.9079 35.2729 5.30376 45.0204 5.16041 59.6417C5.01706 74.2629 12.7577 77.9899 18.4915 77.9899C27.5223 78.1333 36.2664 68.2424 36.5531 55.0546C36.8398 41.8668 30.5326 35.1296 22.7919 35.2729ZM65.2222 46.7406C54.6146 46.7406 43.577 56.6314 43.577 70.5359C43.7204 82.4336 51.6044 93.0412 63.7888 93.0412C75.9731 93.0412 84.5739 81.8602 84.5739 70.5359C84.7172 58.0649 76.9765 46.7406 65.2222 46.7406Z" fill="#FEFAE6"/>
</svg>
